<?xml version="1.0" encoding="UTF-8" standalone="no"?>
<!DOCTYPE svg PUBLIC "-//W3C//DTD SVG 1.1//EN"
 "http://www.w3.org/Graphics/SVG/1.1/DTD/svg11.dtd">
<!-- Generated by graphviz version 2.42.4 (0)
 -->
<!-- Title: ROM Pages: 1 -->
<svg width="2822pt" height="660pt"
 viewBox="0.00 0.00 2822.40 659.90" xmlns="http://www.w3.org/2000/svg" xmlns:xlink="http://www.w3.org/1999/xlink">
<g id="graph0" class="graph" transform="scale(1 1) rotate(0) translate(25.2 634.7)">
<title>ROM</title>
<polygon fill="#f8fafc" stroke="transparent" points="-25.2,25.2 -25.2,-634.7 2797.2,-634.7 2797.2,25.2 -25.2,25.2"/>
<text text-anchor="middle" x="1386" y="-587.9" font-family="DejaVu Sans" font-size="22.00">Rise of Mankind — source architecture at 1ab4f99</text>
<!-- XML -->
<g id="node1" class="node">
<title>XML</title>
<path fill="#dbeafe" stroke="#94a3b8" d="M192,-441.5C192,-441.5 12,-441.5 12,-441.5 6,-441.5 0,-435.5 0,-429.5 0,-429.5 0,-396.5 0,-396.5 0,-390.5 6,-384.5 12,-384.5 12,-384.5 192,-384.5 192,-384.5 198,-384.5 204,-390.5 204,-396.5 204,-396.5 204,-429.5 204,-429.5 204,-435.5 198,-441.5 192,-441.5"/>
<text text-anchor="middle" x="102" y="-422.9" font-family="DejaVu Sans" font-size="12.00">Rule XML + modules</text>
<text text-anchor="middle" x="102" y="-409.9" font-family="DejaVu Sans" font-size="12.00">techs · civics · units · buildings</text>
<text text-anchor="middle" x="102" y="-396.9" font-family="DejaVu Sans" font-size="12.00">events · victory · defines</text>
</g>
<!-- Loader -->
<g id="node2" class="node">
<title>Loader</title>
<path fill="#dbeafe" stroke="#94a3b8" d="M481,-400.5C481,-400.5 275,-400.5 275,-400.5 269,-400.5 263,-394.5 263,-388.5 263,-388.5 263,-355.5 263,-355.5 263,-349.5 269,-343.5 275,-343.5 275,-343.5 481,-343.5 481,-343.5 487,-343.5 493,-349.5 493,-355.5 493,-355.5 493,-388.5 493,-388.5 493,-394.5 487,-400.5 481,-400.5"/>
<text text-anchor="middle" x="378" y="-381.9" font-family="DejaVu Sans" font-size="12.00">CvXMLLoadUtility* + CvInfos</text>
<text text-anchor="middle" x="378" y="-368.9" font-family="DejaVu Sans" font-size="12.00">MLF order · dependencies</text>
<text text-anchor="middle" x="378" y="-355.9" font-family="DejaVu Sans" font-size="12.00">copyNonDefaults · multiple passes</text>
</g>
<!-- XML&#45;&gt;Loader -->
<g id="edge1" class="edge">
<title>XML&#45;&gt;Loader</title>
<path fill="none" stroke="#64748b" d="M204.25,-397.85C220.92,-395.35 238.36,-392.75 255.46,-390.19"/>
<polygon fill="#64748b" stroke="#64748b" points="256.21,-392.55 262.77,-389.09 255.49,-387.71 256.21,-392.55"/>
</g>
<!-- Tests -->
<g id="node15" class="node">
<title>Tests</title>
<path fill="#e2e8f0" stroke="#94a3b8" d="M1623.5,-485.5C1623.5,-485.5 1403.5,-485.5 1403.5,-485.5 1397.5,-485.5 1391.5,-479.5 1391.5,-473.5 1391.5,-473.5 1391.5,-440.5 1391.5,-440.5 1391.5,-434.5 1397.5,-428.5 1403.5,-428.5 1403.5,-428.5 1623.5,-428.5 1623.5,-428.5 1629.5,-428.5 1635.5,-434.5 1635.5,-440.5 1635.5,-440.5 1635.5,-473.5 1635.5,-473.5 1635.5,-479.5 1629.5,-485.5 1623.5,-485.5"/>
<text text-anchor="middle" x="1513.5" y="-466.9" font-family="DejaVu Sans" font-size="12.00">Tools: 14 regression programs</text>
<text text-anchor="middle" x="1513.5" y="-453.9" font-family="DejaVu Sans" font-size="12.00">compiled policies + source contracts</text>
<text text-anchor="middle" x="1513.5" y="-440.9" font-family="DejaVu Sans" font-size="12.00">XML checks · victory model</text>
</g>
<!-- XML&#45;&gt;Tests -->
<g id="edge23" class="edge">
<title>XML&#45;&gt;Tests</title>
<path fill="none" stroke="#64748b" stroke-dasharray="5,2" d="M204.28,-435.48C255.73,-445.03 319.4,-454 377,-454 377,-454 377,-454 1108,-454 1200.37,-454 1304.6,-454.79 1384.12,-455.56"/>
<polygon fill="#64748b" stroke="#64748b" points="1384.23,-458.01 1391.26,-455.63 1384.28,-453.11 1384.23,-458.01"/>
<text text-anchor="middle" x="706" y="-457" font-family="DejaVu Sans" font-size="10.00">data contracts</text>
</g>
<!-- Registry -->
<g id="node3" class="node">
<title>Registry</title>
<path fill="#dbeafe" stroke="#94a3b8" d="M807,-381C807,-381 605,-381 605,-381 599,-381 593,-375 593,-369 593,-369 593,-349 593,-349 593,-343 599,-337 605,-337 605,-337 807,-337 807,-337 813,-337 819,-343 819,-349 819,-349 819,-369 819,-369 819,-375 813,-381 807,-381"/>
<text text-anchor="middle" x="706" y="-362.4" font-family="DejaVu Sans" font-size="12.00">CvGlobals / GC</text>
<text text-anchor="middle" x="706" y="-349.4" font-family="DejaVu Sans" font-size="12.00">resolved info tables + live defines</text>
</g>
<!-- Loader&#45;&gt;Registry -->
<g id="edge2" class="edge">
<title>Loader&#45;&gt;Registry</title>
<path fill="none" stroke="#64748b" d="M493.02,-367.45C523.02,-366.26 555.46,-364.96 585.73,-363.76"/>
<polygon fill="#64748b" stroke="#64748b" points="586.07,-366.19 592.97,-363.47 585.88,-361.3 586.07,-366.19"/>
</g>
<!-- World -->
<g id="node6" class="node">
<title>World</title>
<path fill="#dcfce7" stroke="#94a3b8" d="M1608,-263.5C1608,-263.5 1419,-263.5 1419,-263.5 1413,-263.5 1407,-257.5 1407,-251.5 1407,-251.5 1407,-218.5 1407,-218.5 1407,-212.5 1413,-206.5 1419,-206.5 1419,-206.5 1608,-206.5 1608,-206.5 1614,-206.5 1620,-212.5 1620,-218.5 1620,-218.5 1620,-251.5 1620,-251.5 1620,-257.5 1614,-263.5 1608,-263.5"/>
<text text-anchor="middle" x="1513.5" y="-244.9" font-family="DejaVu Sans" font-size="12.00">CvMap / CvPlot / CvCity / CvUnit</text>
<text text-anchor="middle" x="1513.5" y="-231.9" font-family="DejaVu Sans" font-size="12.00">world state + legal mutations</text>
<text text-anchor="middle" x="1513.5" y="-218.9" font-family="DejaVu Sans" font-size="12.00">production · combat · research</text>
</g>
<!-- Registry&#45;&gt;World -->
<g id="edge3" class="edge">
<title>Registry&#45;&gt;World</title>
<path fill="none" stroke="#64748b" d="M752.21,-336.81C807.48,-310.94 904.59,-269.49 993,-252 1131.02,-224.69 1293.62,-224.34 1399.67,-228.24"/>
<polygon fill="#64748b" stroke="#64748b" points="1399.8,-230.7 1406.89,-228.52 1399.99,-225.8 1399.8,-230.7"/>
<text text-anchor="middle" x="1107" y="-255" font-family="DejaVu Sans" font-size="10.00">parameters / legality</text>
</g>
<!-- AI -->
<g id="node7" class="node">
<title>AI</title>
<path fill="#dcfce7" stroke="#94a3b8" d="M1209,-335.5C1209,-335.5 1005,-335.5 1005,-335.5 999,-335.5 993,-329.5 993,-323.5 993,-323.5 993,-290.5 993,-290.5 993,-284.5 999,-278.5 1005,-278.5 1005,-278.5 1209,-278.5 1209,-278.5 1215,-278.5 1221,-284.5 1221,-290.5 1221,-290.5 1221,-323.5 1221,-323.5 1221,-329.5 1215,-335.5 1209,-335.5"/>
<text text-anchor="middle" x="1107" y="-316.9" font-family="DejaVu Sans" font-size="12.00">Cv*AI + 13 policy headers</text>
<text text-anchor="middle" x="1107" y="-303.9" font-family="DejaVu Sans" font-size="12.00">strategic context → agenda</text>
<text text-anchor="middle" x="1107" y="-290.9" font-family="DejaVu Sans" font-size="12.00">operations / governors → missions</text>
</g>
<!-- Registry&#45;&gt;AI -->
<g id="edge4" class="edge">
<title>Registry&#45;&gt;AI</title>
<path fill="none" stroke="#64748b" d="M819.21,-344.38C871.16,-337.61 932.94,-329.55 985.84,-322.66"/>
<polygon fill="#64748b" stroke="#64748b" points="986.28,-325.07 992.91,-321.74 985.65,-320.21 986.28,-325.07"/>
<text text-anchor="middle" x="906" y="-342" font-family="DejaVu Sans" font-size="10.00">weights / options</text>
</g>
<!-- Host -->
<g id="node4" class="node">
<title>Host</title>
<path fill="#fee2e2" stroke="#94a3b8" d="M458,-135.5C458,-135.5 298,-135.5 298,-135.5 292,-135.5 286,-129.5 286,-123.5 286,-123.5 286,-90.5 286,-90.5 286,-84.5 292,-78.5 298,-78.5 298,-78.5 458,-78.5 458,-78.5 464,-78.5 470,-84.5 470,-90.5 470,-90.5 470,-123.5 470,-123.5 470,-129.5 464,-135.5 458,-135.5"/>
<text text-anchor="middle" x="378" y="-116.9" font-family="DejaVu Sans" font-size="12.00">BTS executable</text>
<text text-anchor="middle" x="378" y="-103.9" font-family="DejaVu Sans" font-size="12.00">update slices · Python host</text>
<text text-anchor="middle" x="378" y="-90.9" font-family="DejaVu Sans" font-size="12.00">A* service · I/O · UI</text>
</g>
<!-- Scheduler -->
<g id="node5" class="node">
<title>Scheduler</title>
<path fill="#dcfce7" stroke="#94a3b8" d="M796.5,-176C796.5,-176 615.5,-176 615.5,-176 609.5,-176 603.5,-170 603.5,-164 603.5,-164 603.5,-144 603.5,-144 603.5,-138 609.5,-132 615.5,-132 615.5,-132 796.5,-132 796.5,-132 802.5,-132 808.5,-138 808.5,-144 808.5,-144 808.5,-164 808.5,-164 808.5,-170 802.5,-176 796.5,-176"/>
<text text-anchor="middle" x="706" y="-157.4" font-family="DejaVu Sans" font-size="12.00">CvGame / CvPlayer / CvTeam</text>
<text text-anchor="middle" x="706" y="-144.4" font-family="DejaVu Sans" font-size="12.00">mode&#45;sensitive turn scheduler</text>
</g>
<!-- Host&#45;&gt;Scheduler -->
<g id="edge5" class="edge">
<title>Host&#45;&gt;Scheduler</title>
<path fill="none" stroke="#64748b" d="M470.24,-120.15C509.42,-125.8 555.5,-132.45 596.41,-138.34"/>
<polygon fill="#64748b" stroke="#64748b" points="596.18,-140.79 603.46,-139.36 596.88,-135.94 596.18,-140.79"/>
<text text-anchor="middle" x="543" y="-137" font-family="DejaVu Sans" font-size="10.00">update()</text>
</g>
<!-- Host&#45;&gt;World -->
<g id="edge6" class="edge">
<title>Host&#45;&gt;World</title>
<path fill="none" stroke="#64748b" d="M470.1,-106.71C559.14,-106.93 698.51,-108.64 819,-116 998.26,-126.96 1043,-133.11 1221,-157 1282.63,-165.27 1298.83,-164.34 1359,-180 1383.92,-186.48 1410.5,-195.3 1434.43,-203.98"/>
<polygon fill="#64748b" stroke="#64748b" points="1433.69,-206.32 1441.1,-206.42 1435.37,-201.72 1433.69,-206.32"/>
<text text-anchor="middle" x="906" y="-130" font-family="DejaVu Sans" font-size="10.00">path / engine interfaces</text>
</g>
<!-- Scheduler&#45;&gt;World -->
<g id="edge7" class="edge">
<title>Scheduler&#45;&gt;World</title>
<path fill="none" stroke="#64748b" d="M808.73,-156.49C912.64,-159.85 1078.49,-167.43 1221,-184 1280.22,-190.89 1345.64,-202.01 1399.48,-212.11"/>
<polygon fill="#64748b" stroke="#64748b" points="1399.33,-214.57 1406.66,-213.46 1400.24,-209.76 1399.33,-214.57"/>
<text text-anchor="middle" x="1107" y="-187" font-family="DejaVu Sans" font-size="10.00">ordered phases</text>
</g>
<!-- Scheduler&#45;&gt;AI -->
<g id="edge8" class="edge">
<title>Scheduler&#45;&gt;AI</title>
<path fill="none" stroke="#64748b" d="M764.59,-176.08C832.89,-202.27 947.18,-246.1 1024.52,-275.76"/>
<polygon fill="#64748b" stroke="#64748b" points="1024.01,-278.18 1031.42,-278.4 1025.76,-273.61 1024.01,-278.18"/>
<text text-anchor="middle" x="906" y="-252" font-family="DejaVu Sans" font-size="10.00">planning / movement</text>
</g>
<!-- Events -->
<g id="node9" class="node">
<title>Events</title>
<path fill="#fef3c7" stroke="#94a3b8" d="M1961,-486.5C1961,-486.5 1806,-486.5 1806,-486.5 1800,-486.5 1794,-480.5 1794,-474.5 1794,-474.5 1794,-441.5 1794,-441.5 1794,-435.5 1800,-429.5 1806,-429.5 1806,-429.5 1961,-429.5 1961,-429.5 1967,-429.5 1973,-435.5 1973,-441.5 1973,-441.5 1973,-474.5 1973,-474.5 1973,-480.5 1967,-486.5 1961,-486.5"/>
<text text-anchor="middle" x="1883.5" y="-467.9" font-family="DejaVu Sans" font-size="12.00">CvEventReporter</text>
<text text-anchor="middle" x="1883.5" y="-454.9" font-family="DejaVu Sans" font-size="12.00">→ CvDllPythonEvents</text>
<text text-anchor="middle" x="1883.5" y="-441.9" font-family="DejaVu Sans" font-size="12.00">→ CvEventInterface / BUG</text>
</g>
<!-- World&#45;&gt;Events -->
<g id="edge10" class="edge">
<title>World&#45;&gt;Events</title>
<path fill="none" stroke="#64748b" d="M1561.86,-263.7C1630.45,-305.26 1757.07,-381.99 1828.97,-425.56"/>
<polygon fill="#64748b" stroke="#64748b" points="1828.07,-427.88 1835.33,-429.41 1830.61,-423.69 1828.07,-427.88"/>
<text text-anchor="middle" x="1716.5" y="-388" font-family="DejaVu Sans" font-size="10.00">synchronous hooks</text>
</g>
<!-- Python -->
<g id="node11" class="node">
<title>Python</title>
<path fill="#fef3c7" stroke="#94a3b8" d="M2343,-407.5C2343,-407.5 2125,-407.5 2125,-407.5 2119,-407.5 2113,-401.5 2113,-395.5 2113,-395.5 2113,-362.5 2113,-362.5 2113,-356.5 2119,-350.5 2125,-350.5 2125,-350.5 2343,-350.5 2343,-350.5 2349,-350.5 2355,-356.5 2355,-362.5 2355,-362.5 2355,-395.5 2355,-395.5 2355,-401.5 2349,-407.5 2343,-407.5"/>
<text text-anchor="middle" x="2234" y="-388.9" font-family="DejaVu Sans" font-size="12.00">RoMEventManager / RoMGameUtils</text>
<text text-anchor="middle" x="2234" y="-375.9" font-family="DejaVu Sans" font-size="12.00">Revolution / TechConquest / RevDCM</text>
<text text-anchor="middle" x="2234" y="-362.9" font-family="DejaVu Sans" font-size="12.00">CvRandomEventInterface</text>
</g>
<!-- World&#45;&gt;Python -->
<g id="edge14" class="edge">
<title>World&#45;&gt;Python</title>
<path fill="none" stroke="#64748b" d="M1620.13,-256.17C1749.31,-282.06 1967.77,-325.84 2105.98,-353.54"/>
<polygon fill="#64748b" stroke="#64748b" points="2105.57,-355.96 2112.91,-354.93 2106.53,-351.15 2105.57,-355.96"/>
<text text-anchor="middle" x="1883.5" y="-328" font-family="DejaVu Sans" font-size="10.00">query / veto callbacks</text>
</g>
<!-- Save -->
<g id="node14" class="node">
<title>Save</title>
<path fill="#e2e8f0" stroke="#94a3b8" d="M2752.5,-285.5C2752.5,-285.5 2571.5,-285.5 2571.5,-285.5 2565.5,-285.5 2559.5,-279.5 2559.5,-273.5 2559.5,-273.5 2559.5,-240.5 2559.5,-240.5 2559.5,-234.5 2565.5,-228.5 2571.5,-228.5 2571.5,-228.5 2752.5,-228.5 2752.5,-228.5 2758.5,-228.5 2764.5,-234.5 2764.5,-240.5 2764.5,-240.5 2764.5,-273.5 2764.5,-273.5 2764.5,-279.5 2758.5,-285.5 2752.5,-285.5"/>
<text text-anchor="middle" x="2662" y="-266.9" font-family="DejaVu Sans" font-size="12.00">Native read/write + RNG state</text>
<text text-anchor="middle" x="2662" y="-253.9" font-family="DejaVu Sans" font-size="12.00">BUG/SdToolKit script data</text>
<text text-anchor="middle" x="2662" y="-240.9" font-family="DejaVu Sans" font-size="12.00">Revolution state</text>
</g>
<!-- World&#45;&gt;Save -->
<g id="edge20" class="edge">
<title>World&#45;&gt;Save</title>
<path fill="none" stroke="#64748b" d="M1627.22,-237.16C1847.83,-241.4 2334.03,-250.73 2551.79,-254.9"/>
<polygon fill="#64748b" stroke="#64748b" points="1627.09,-234.71 1620.05,-237.03 1627,-239.61 1627.09,-234.71"/>
<polygon fill="#64748b" stroke="#64748b" points="2552.06,-257.36 2559.1,-255.04 2552.15,-252.46 2552.06,-257.36"/>
</g>
<!-- AI&#45;&gt;World -->
<g id="edge9" class="edge">
<title>AI&#45;&gt;World</title>
<path fill="none" stroke="#64748b" d="M1221.21,-286.85C1277.02,-276.91 1344.13,-264.97 1399.87,-255.05"/>
<polygon fill="#64748b" stroke="#64748b" points="1400.49,-257.43 1406.95,-253.79 1399.63,-252.6 1400.49,-257.43"/>
<text text-anchor="middle" x="1304.5" y="-284" font-family="DejaVu Sans" font-size="10.00">legal commands</text>
</g>
<!-- AI&#45;&gt;Tests -->
<g id="edge22" class="edge">
<title>AI&#45;&gt;Tests</title>
<path fill="none" stroke="#64748b" stroke-dasharray="5,2" d="M1185.04,-335.57C1254.65,-361.38 1356.9,-399.3 1428.57,-425.88"/>
<polygon fill="#64748b" stroke="#64748b" points="1427.99,-428.28 1435.41,-428.41 1429.7,-423.68 1427.99,-428.28"/>
<text text-anchor="middle" x="1304.5" y="-402" font-family="DejaVu Sans" font-size="10.00">portable policy seams</text>
</g>
<!-- Bridge -->
<g id="node8" class="node">
<title>Bridge</title>
<path fill="#fef3c7" stroke="#94a3b8" d="M2740.5,-169C2740.5,-169 2583.5,-169 2583.5,-169 2577.5,-169 2571.5,-163 2571.5,-157 2571.5,-157 2571.5,-137 2571.5,-137 2571.5,-131 2577.5,-125 2583.5,-125 2583.5,-125 2740.5,-125 2740.5,-125 2746.5,-125 2752.5,-131 2752.5,-137 2752.5,-137 2752.5,-157 2752.5,-157 2752.5,-163 2746.5,-169 2740.5,-169"/>
<text text-anchor="middle" x="2662" y="-150.4" font-family="DejaVu Sans" font-size="12.00">Cy* Boost.Python bindings</text>
<text text-anchor="middle" x="2662" y="-137.4" font-family="DejaVu Sans" font-size="12.00">CvPythonExtensions</text>
</g>
<!-- Bridge&#45;&gt;World -->
<g id="edge16" class="edge">
<title>Bridge&#45;&gt;World</title>
<path fill="none" stroke="#64748b" d="M2571.46,-153.87C2364.82,-169.73 1854.96,-208.87 1627.36,-226.34"/>
<polygon fill="#64748b" stroke="#64748b" points="1626.84,-223.92 1620.05,-226.9 1627.22,-228.81 1626.84,-223.92"/>
<text text-anchor="middle" x="2043" y="-201" font-family="DejaVu Sans" font-size="10.00">state changes</text>
</g>
<!-- Events&#45;&gt;Python -->
<g id="edge13" class="edge">
<title>Events&#45;&gt;Python</title>
<path fill="none" stroke="#64748b" d="M1973.34,-437.86C2013.54,-428.75 2061.8,-417.81 2105.74,-407.85"/>
<polygon fill="#64748b" stroke="#64748b" points="2106.47,-410.19 2112.76,-406.26 2105.39,-405.42 2106.47,-410.19"/>
<text text-anchor="middle" x="2043" y="-433" font-family="DejaVu Sans" font-size="10.00">ordered dispatch</text>
</g>
<!-- Config -->
<g id="node10" class="node">
<title>Config</title>
<path fill="#ede9fe" stroke="#94a3b8" d="M1627,-577.5C1627,-577.5 1400,-577.5 1400,-577.5 1394,-577.5 1388,-571.5 1388,-565.5 1388,-565.5 1388,-532.5 1388,-532.5 1388,-526.5 1394,-520.5 1400,-520.5 1400,-520.5 1627,-520.5 1627,-520.5 1633,-520.5 1639,-526.5 1639,-532.5 1639,-532.5 1639,-565.5 1639,-565.5 1639,-571.5 1633,-577.5 1627,-577.5"/>
<text text-anchor="middle" x="1513.5" y="-558.9" font-family="DejaVu Sans" font-size="12.00">Assets/Config/init.xml</text>
<text text-anchor="middle" x="1513.5" y="-545.9" font-family="DejaVu Sans" font-size="12.00">BUG load / events / gameutils / export</text>
<text text-anchor="middle" x="1513.5" y="-532.9" font-family="DejaVu Sans" font-size="12.00">UserSettings + RoM INI</text>
</g>
<!-- Config&#45;&gt;Events -->
<g id="edge11" class="edge">
<title>Config&#45;&gt;Events</title>
<path fill="none" stroke="#64748b" d="M1629.93,-520.46C1680.36,-507.99 1738.8,-493.53 1786.76,-481.67"/>
<polygon fill="#64748b" stroke="#64748b" points="1787.55,-484 1793.76,-479.94 1786.38,-479.25 1787.55,-484"/>
<text text-anchor="middle" x="1716.5" y="-511" font-family="DejaVu Sans" font-size="10.00">handler registration</text>
</g>
<!-- Config&#45;&gt;Python -->
<g id="edge12" class="edge">
<title>Config&#45;&gt;Python</title>
<path fill="none" stroke="#64748b" d="M1639.37,-548.5C1732.87,-545.26 1863.05,-534.61 1973,-503 2048.05,-481.42 2128.28,-440.03 2179.45,-411.03"/>
<polygon fill="#64748b" stroke="#64748b" points="2180.67,-413.15 2185.54,-407.55 2178.25,-408.89 2180.67,-413.15"/>
<text text-anchor="middle" x="1883.5" y="-540" font-family="DejaVu Sans" font-size="10.00">load + export callbacks</text>
</g>
<!-- Python&#45;&gt;Registry -->
<g id="edge17" class="edge">
<title>Python&#45;&gt;Registry</title>
<path fill="none" stroke="#64748b" d="M2112.76,-377.42C1827.19,-373.68 1110.86,-364.29 826.27,-360.56"/>
<polygon fill="#64748b" stroke="#64748b" points="826.24,-358.11 819.21,-360.47 826.18,-363.01 826.24,-358.11"/>
<text text-anchor="middle" x="1513.5" y="-374" font-family="DejaVu Sans" font-size="10.00">RevDCM live defines</text>
</g>
<!-- Python&#45;&gt;Bridge -->
<g id="edge15" class="edge">
<title>Python&#45;&gt;Bridge</title>
<path fill="none" stroke="#64748b" d="M2281.21,-350.39C2310.42,-332.56 2349.11,-309.4 2384,-290 2461.65,-246.82 2553.63,-200.21 2609.62,-172.33"/>
<polygon fill="#64748b" stroke="#64748b" points="2610.76,-174.5 2615.93,-169.19 2608.57,-170.12 2610.76,-174.5"/>
<text text-anchor="middle" x="2453.5" y="-293" font-family="DejaVu Sans" font-size="10.00">state changes</text>
</g>
<!-- Python&#45;&gt;Save -->
<g id="edge21" class="edge">
<title>Python&#45;&gt;Save</title>
<path fill="none" stroke="#64748b" d="M2359.36,-348.74C2410.31,-335.79 2469.72,-319.99 2523,-304 2539.33,-299.1 2556.63,-293.52 2573.25,-287.97"/>
<polygon fill="#64748b" stroke="#64748b" points="2358.73,-346.37 2352.55,-350.47 2359.94,-351.12 2358.73,-346.37"/>
<polygon fill="#64748b" stroke="#64748b" points="2574.47,-290.14 2580.32,-285.59 2572.91,-285.49 2574.47,-290.14"/>
</g>
<!-- Telemetry -->
<g id="node16" class="node">
<title>Telemetry</title>
<path fill="#e2e8f0" stroke="#94a3b8" d="M2760,-407.5C2760,-407.5 2564,-407.5 2564,-407.5 2558,-407.5 2552,-401.5 2552,-395.5 2552,-395.5 2552,-362.5 2552,-362.5 2552,-356.5 2558,-350.5 2564,-350.5 2564,-350.5 2760,-350.5 2760,-350.5 2766,-350.5 2772,-356.5 2772,-362.5 2772,-362.5 2772,-395.5 2772,-395.5 2772,-401.5 2766,-407.5 2760,-407.5"/>
<text text-anchor="middle" x="2662" y="-388.9" font-family="DejaVu Sans" font-size="12.00">AugustusAIProfiler</text>
<text text-anchor="middle" x="2662" y="-375.9" font-family="DejaVu Sans" font-size="12.00">SettlementTrainingProfiler v4</text>
<text text-anchor="middle" x="2662" y="-362.9" font-family="DejaVu Sans" font-size="12.00">CSV combiner → pairwise trainer</text>
</g>
<!-- Python&#45;&gt;Telemetry -->
<g id="edge24" class="edge">
<title>Python&#45;&gt;Telemetry</title>
<path fill="none" stroke="#64748b" d="M2355.08,-379C2414.43,-379 2485.75,-379 2544.6,-379"/>
<polygon fill="#64748b" stroke="#64748b" points="2544.71,-381.45 2551.71,-379 2544.71,-376.55 2544.71,-381.45"/>
<text text-anchor="middle" x="2453.5" y="-382" font-family="DejaVu Sans" font-size="10.00">turn / city&#45;built hooks</text>
</g>
<!-- Maps -->
<g id="node12" class="node">
<title>Maps</title>
<path fill="#ede9fe" stroke="#94a3b8" d="M2301.5,-120C2301.5,-120 2166.5,-120 2166.5,-120 2160.5,-120 2154.5,-114 2154.5,-108 2154.5,-108 2154.5,-88 2154.5,-88 2154.5,-82 2160.5,-76 2166.5,-76 2166.5,-76 2301.5,-76 2301.5,-76 2307.5,-76 2313.5,-82 2313.5,-88 2313.5,-88 2313.5,-108 2313.5,-108 2313.5,-114 2307.5,-120 2301.5,-120"/>
<text text-anchor="middle" x="2234" y="-101.4" font-family="DejaVu Sans" font-size="12.00">39 PrivateMaps scripts</text>
<text text-anchor="middle" x="2234" y="-88.4" font-family="DejaVu Sans" font-size="12.00">+ 44 scenario files</text>
</g>
<!-- Maps&#45;&gt;Bridge -->
<g id="edge18" class="edge">
<title>Maps&#45;&gt;Bridge</title>
<path fill="none" stroke="#64748b" d="M2313.63,-107.04C2384.32,-115.17 2488.37,-127.14 2564.16,-135.86"/>
<polygon fill="#64748b" stroke="#64748b" points="2564.17,-138.33 2571.4,-136.69 2564.73,-133.46 2564.17,-138.33"/>
<text text-anchor="middle" x="2453.5" y="-133" font-family="DejaVu Sans" font-size="10.00">world generation</text>
</g>
<!-- UI -->
<g id="node13" class="node">
<title>UI</title>
<path fill="#ede9fe" stroke="#94a3b8" d="M2336.5,-44C2336.5,-44 2131.5,-44 2131.5,-44 2125.5,-44 2119.5,-38 2119.5,-32 2119.5,-32 2119.5,-12 2119.5,-12 2119.5,-6 2125.5,0 2131.5,0 2131.5,0 2336.5,0 2336.5,0 2342.5,0 2348.5,-6 2348.5,-12 2348.5,-12 2348.5,-32 2348.5,-32 2348.5,-38 2342.5,-44 2336.5,-44"/>
<text text-anchor="middle" x="2234" y="-25.4" font-family="DejaVu Sans" font-size="12.00">Screens / advisors / alerts</text>
<text text-anchor="middle" x="2234" y="-12.4" font-family="DejaVu Sans" font-size="12.00">input → messages and commands</text>
</g>
<!-- UI&#45;&gt;Bridge -->
<g id="edge19" class="edge">
<title>UI&#45;&gt;Bridge</title>
<path fill="none" stroke="#64748b" d="M2328.68,-44.06C2385.31,-57.97 2458.73,-77.04 2523,-97 2547.47,-104.6 2574.02,-113.95 2597.23,-122.49"/>
<polygon fill="#64748b" stroke="#64748b" points="2596.58,-124.87 2604,-125 2598.28,-120.27 2596.58,-124.87"/>
<text text-anchor="middle" x="2453.5" y="-100" font-family="DejaVu Sans" font-size="10.00">queries / command requests</text>
</g>
</g>
</svg>
